grf
version=1
nRows=22
nColumns=19
inDegrees=yes
endheader
time	ground_force_2_vx	ground_force_2_vy	ground_force_2_vz	ground_force_2_px	ground_force_2_py	ground_force_2_pz	ground_moment_2_mx	ground_moment_2_my	ground_moment_2_mz	ground_force_3_vx	ground_force_3_vy	ground_force_3_vz	ground_force_3_px	ground_force_3_py	ground_force_3_pz	ground_moment_3_mx	ground_moment_3_my	ground_moment_3_mz
0.477000	0.000000	0.000000	0.000000	-0.347261	0.000000	0.310960	0.000000	0.000000	0.000000	-34.703312	537.275457	35.123874	-0.865311	0.000000	0.166684	-0.000000	1.293806	-0.000000
0.478000	0.000000	0.000000	0.000000	-0.346841	0.000000	0.310451	0.000000	0.000000	0.000000	-34.385003	536.326305	35.028409	-0.865035	0.000000	0.166641	-0.000000	1.281188	-0.000000
0.479000	0.000000	0.000000	0.000000	-0.346433	0.000000	0.309957	0.000000	0.000000	0.000000	-34.068986	535.361076	34.930658	-0.864760	0.000000	0.166602	-0.000000	1.268429	-0.000000
0.480000	0.000000	0.000000	0.000000	-0.346015	0.000000	0.309450	0.000000	0.000000	0.000000	-33.755305	534.380362	34.830678	-0.864485	0.000000	0.166567	-0.000000	1.255534	-0.000000
0.481000	0.000000	0.000000	0.000000	-0.345559	0.000000	0.308898	0.000000	0.000000	0.000000	-33.444004	533.384746	34.728527	-0.864209	0.000000	0.166537	-0.000000	1.242506	-0.000000
0.482000	0.000000	0.000000	0.000000	-0.345030	0.000000	0.308257	0.000000	0.000000	0.000000	-33.135124	532.374808	34.624267	-0.863930	0.000000	0.166511	-0.000000	1.229352	-0.000000
0.483000	0.000000	0.000000	0.000000	-0.344369	0.000000	0.307455	0.000000	0.000000	0.000000	-32.828706	531.351122	34.517959	-0.863647	0.000000	0.166486	-0.000000	1.216075	-0.000000
0.484000	0.000000	0.000000	0.000000	-0.343460	0.000000	0.306353	0.000000	0.000000	0.000000	-32.524787	530.314255	34.409666	-0.863358	0.000000	0.166461	-0.000000	1.202681	-0.000000
0.485000	0.000000	0.000000	0.000000	-0.342035	0.000000	0.304626	0.000000	0.000000	0.000000	-32.223404	529.264769	34.299453	-0.863063	0.000000	0.166434	-0.000000	1.189175	-0.000000
0.486000	0.000000	0.000000	0.000000	-0.339266	0.000000	0.301271	0.000000	0.000000	0.000000	-31.924591	528.203218	34.187384	-0.862761	0.000000	0.166403	-0.000000	1.175561	-0.000000
0.487000	0.000000	0.000000	0.000000	-0.330647	0.000000	0.290825	0.000000	0.000000	0.000000	-31.628382	527.130153	34.073527	-0.862452	0.000000	0.166368	-0.000000	1.161845	-0.000000
0.488000	0.000000	0.000000	0.000000	-0.488400	0.000000	0.482018	0.000000	0.000000	0.000000	-31.334808	526.046115	33.957951	-0.862136	0.000000	0.166328	-0.000000	1.148032	-0.000000
0.489000	0.000000	0.000000	0.000000	-0.359595	0.000000	0.325909	0.000000	0.000000	0.000000	-31.043898	524.951640	33.840723	-0.861816	0.000000	0.166283	-0.000000	1.134128	-0.000000
0.490000	0.000000	0.000000	0.000000	-0.353216	0.000000	0.318178	0.000000	0.000000	0.000000	-30.755679	523.847259	33.721915	-0.861493	0.000000	0.166234	-0.000000	1.120137	-0.000000
0.491000	0.000000	0.000000	0.000000	-0.350858	0.000000	0.315319	0.000000	0.000000	0.000000	-30.470179	522.733495	33.601598	-0.861169	0.000000	0.166183	-0.000000	1.106064	-0.000000
0.492000	0.000000	0.000000	0.000000	-0.349575	0.000000	0.313765	0.000000	0.000000	0.000000	-30.187422	521.610865	33.479844	-0.860844	0.000000	0.166130	-0.000000	1.091916	-0.000000
0.493000	0.000000	0.000000	0.000000	-0.348731	0.000000	0.312742	0.000000	0.000000	0.000000	-29.907429	520.479879	33.356726	-0.860517	0.000000	0.166076	-0.000000	1.077697	-0.000000
0.494000	0.000000	0.000000	0.000000	-0.348103	0.000000	0.311981	0.000000	0.000000	0.000000	-29.630223	519.341040	33.232317	-0.860188	0.000000	0.166020	-0.000000	1.063413	-0.000000
0.495000	0.000000	0.000000	0.000000	-0.347593	0.000000	0.311363	0.000000	0.000000	0.000000	-29.355823	518.194846	33.106694	-0.859855	0.000000	0.165965	-0.000000	1.049069	-0.000000
0.496000	0.000000	0.000000	0.000000	-0.347147	0.000000	0.310823	0.000000	0.000000	0.000000	-29.084246	517.041788	32.979930	-0.859519	0.000000	0.165910	-0.000000	1.034671	-0.000000
0.497000	0.000000	0.000000	0.000000	-0.346733	0.000000	0.310320	0.000000	0.000000	0.000000	-28.815509	515.882350	32.852102	-0.859178	0.000000	0.165857	-0.000000	1.020223	-0.000000
0.498000	0.000000	0.000000	0.000000	-0.346325	0.000000	0.309826	0.000000	0.000000	0.000000	-28.549626	514.717009	32.723286	-0.858832	0.000000	0.165804	-0.000000	1.005732	-0.000000
